# xmcd
#
# Track frame offsets:
# 150
# 18830
# 34955
# 49843
# 68995
# 84793
# 102095
# 120880
# 141478
# 157175
# 169598
# 187873
# 209895
# 226957
# 241366
# 260899
#
# Disc length: 3743 seconds
#
#
# Revision: 4
# Processed by: cddbd v1.5.2PL0 Copyright (c) Steve Scherf et al.
# Submitted via: FreeRIP 2.96 
#
DISCID=dc0e9d10
DTITLE=Wynonna - New Day Dawning
DYEAR=1999
DGENRE=Country
TTITLE0=Going Nowhere
TTITLE1=New Day Dawning
TTITLE2=Can`t Nobody Love You (Like I Do)
TTITLE3=Chain Reaction
TTITLE4=Help Me
TTITLE5=I`ve Got Your Love
TTITLE6=Tuff Enuff
TTITLE7=Who Am I Tryin`To Fool
TTITLE8=Lost Without You
TTITLE9=He Rocks
TTITLE10=Learning To Live With Love Again
TTITLE11=I Can`t Wait To Meet You
TTITLE12=Stuck In Love
TTITLE13=Big Bang Boogie
TTITLE14=That`s What Makes You Strong
TTITLE15=The 90`s Was The 60`s Turned Upside Down
EXTD=
EXTT0=
EXTT1=
EXTT2=
EXTT3=
EXTT4=
EXTT5=
EXTT6=
EXTT7=
EXTT8=
EXTT9=
EXTT10=
EXTT11=
EXTT12=
EXTT13=
EXTT14=
EXTT15=
PLAYORDER=
